<?xml version="1.0" encoding="UTF-8"?>
<svg width="44px" height="44px" viewBox="0 0 44 44" version="1.1" xmlns="http://www.w3.org/2000/svg" xmlns:xlink="http://www.w3.org/1999/xlink">
    <!-- Generator: Sketch 46.1 (44463) - http://www.bohemiancoding.com/sketch -->
    <title>etsy-short</title>
    <desc>Created with Sketch.</desc>
    <defs></defs>
    <g id="Social-Icons" stroke="none" stroke-width="1" fill="none" fill-rule="evenodd">
        <g id="social-icons" transform="translate(-340.000000, -220.000000)">
            <g id="etsy-short" transform="translate(340.000000, 220.000000)">
                <rect id="Rectangle" x="0" y="0" width="44" height="44"></rect>
                <circle id="Oval" stroke="#000000" stroke-width="2" cx="22" cy="22" r="21"></circle>
                <path d="M19.2355757,14.0380435 C19.2355757,13.7663043 19.2605367,13.6032609 19.6848736,13.6032609 L25.4009423,13.6032609 C26.3993822,13.6032609 26.9485242,14.5271739 27.3479002,16.2663043 L27.6723931,17.6521739 L28.6458721,17.6521739 C28.8205991,13.7119565 28.9703651,12 28.9703651,12 C28.9703651,12 26.5241872,12.298913 25.0764493,12.298913 L17.7628768,12.298913 L13.844,12.1630435 L13.844,13.3043478 L15.1669329,13.576087 C16.0904899,13.7663043 16.3151388,13.9836957 16.3900218,14.9076087 C16.3900218,14.9076087 16.4649048,17.625 16.4649048,22.1086957 C16.4649048,26.5923913 16.3900218,29.2826087 16.3900218,29.2826087 C16.3900218,30.0978261 16.0904899,30.3967391 15.1669329,30.5869565 L13.844,30.8586957 L13.844,32 L17.7628768,31.8641304 L24.3026583,31.8641304 C25.7753573,31.8641304 29.195014,32 29.195014,32 C29.269897,31.0217391 29.769117,26.5923913 29.844,26.1032609 L28.9204431,26.1032609 L27.9469641,28.5217391 C27.1731732,30.423913 26.0499282,30.5597826 24.8018783,30.5597826 L21.0826895,30.5597826 C19.8346396,30.5597826 19.2355757,30.0163043 19.2355757,28.8478261 L19.2355757,22.6521739 C19.2355757,22.6521739 22.0062465,22.6521739 22.9048424,22.7336957 C23.6037504,22.7880435 24.0280874,23.0054348 24.2527363,24.0652174 L24.5522683,25.4782609 L25.6255913,25.4782609 L25.5507083,21.9184783 L25.7004743,18.3315217 L24.6271513,18.3315217 L24.2776973,19.9076087 C24.0530484,20.9402174 23.9032824,21.1304348 22.9298034,21.2391304 C21.6567925,21.375 19.2355757,21.3478261 19.2355757,21.3478261 L19.2355757,14.0380435 L19.2355757,14.0380435 Z" id="Shape" fill="#000000"></path>
            </g>
        </g>
    </g>
</svg>