<?xml version="1.0" encoding="UTF-8"?>
<svg width="44px" height="44px" viewBox="0 0 44 44" version="1.1" xmlns="http://www.w3.org/2000/svg" xmlns:xlink="http://www.w3.org/1999/xlink">
    <!-- Generator: Sketch 46.1 (44463) - http://www.bohemiancoding.com/sketch -->
    <title>medium</title>
    <desc>Created with Sketch.</desc>
    <defs></defs>
    <g id="Social-Icons" stroke="none" stroke-width="1" fill="none" fill-rule="evenodd">
        <g id="social-icons" transform="translate(-280.000000, -100.000000)">
            <g id="medium" transform="translate(280.000000, 100.000000)">
                <rect id="Rectangle" x="0" y="0" width="44" height="44"></rect>
                <circle id="Oval" stroke="#000000" stroke-width="2" cx="22" cy="22" r="21"></circle>
                <path d="M32.9327307,16.4069792 C32.9646836,16.4322052 32.9751945,16.4767711 32.9531217,16.5129283 L26.2837923,27.3504309 L21.4889636,19.5589657 L25.3096489,13.3500105 C25.4467101,13.1276014 25.6996006,13 25.9537524,13 C26.0151356,13 26.0763086,13.0094597 26.1362203,13.0248055 C26.1839395,13.0369981 26.231028,13.0521337 26.2758041,13.0746269 L32.9123397,16.3928947 L32.9199075,16.3966786 C32.9251629,16.3992012 32.9285264,16.4036157 32.9327307,16.4069792 Z M19.384486,18.144629 L25.6665966,28.353374 L19.384486,25.2123187 L19.384486,18.144629 Z M26.6104688,28.8253101 L33,18.4422956 L33,30.8848013 C33,31.511667 32.4544881,31.7473197 31.781585,31.4107631 L26.6104688,28.8253101 Z M18.2938827,16.4170696 C18.3180576,16.4290519 18.3334034,16.4538575 18.3334034,16.4807652 L18.3334034,30.8848013 C18.3334034,31.345596 18.084507,31.6201387 17.7296616,31.6201387 C17.6037419,31.6201387 17.4643683,31.585453 17.3180576,31.5122977 L11.6092075,28.6579777 C11.2741223,28.4904351 11,28.0468783 11,27.6722724 L11,13.6781585 C11,13.3096489 11.199075,13.0899727 11.4828674,13.0899727 C11.5837713,13.0899727 11.695186,13.1177213 11.8122766,13.1761614 L18.2938827,16.4170696 Z" id="Shape" fill="#000000"></path>
            </g>
        </g>
    </g>
</svg>